<?xml version="1.0" standalone="no"?>
<!DOCTYPE svg PUBLIC "-//W3C//DTD SVG 20010904//EN"
 "http://www.w3.org/TR/2001/REC-SVG-20010904/DTD/svg10.dtd">
<svg version="1.0" xmlns="http://www.w3.org/2000/svg"
 width="852.000000pt" height="480.000000pt" viewBox="0 0 852.000000 480.000000"
 preserveAspectRatio="xMidYMid meet">
<metadata>
Created by potrace 1.16, written by Peter Selinger 2001-2019
</metadata>
<g transform="translate(0.000000,480.000000) scale(0.100000,-0.100000)"
fill="#000000" stroke="none">
<path d="M0 2400 l0 -2400 4260 0 4260 0 0 2400 0 2400 -4260 0 -4260 0 0
-2400z m5035 1725 c191 -55 331 -140 482 -291 79 -80 103 -110 98 -124 -3 -10
-1 -21 4 -25 7 -4 8 1 4 11 -11 28 13 8 36 -31 14 -25 17 -35 7 -35 -7 0 -18
10 -24 23 -8 17 -11 18 -11 5 -1 -10 -7 -18 -15 -18 -14 0 -17 -19 -20 -116 0
-31 -4 -40 -14 -36 -10 3 -13 -1 -10 -14 2 -10 10 -18 16 -17 13 3 16 -36 4
-52 -16 -22 -33 -15 -30 12 2 16 -2 27 -7 26 -6 -1 -15 9 -22 23 -9 20 -8 24
4 24 13 0 13 3 3 15 -7 9 -15 13 -18 10 -3 -2 -18 20 -34 51 -52 99 -146 220
-241 311 -113 108 -189 160 -375 259 l-47 25 60 -5 c33 -3 101 -17 150 -31z
m-572 -349 l127 -87 -137 -152 c-76 -83 -184 -201 -240 -262 -57 -60 -103
-113 -103 -117 0 -4 78 -50 173 -104 415 -233 528 -305 702 -447 81 -66 115
-99 109 -108 -3 -5 1 -6 9 -3 8 3 20 -2 27 -11 7 -8 9 -15 4 -15 -5 0 -10 -15
-11 -32 -2 -18 -7 -34 -12 -36 -5 -2 -7 -12 -4 -22 3 -11 0 -20 -6 -20 -6 0
-11 -9 -11 -20 0 -13 -7 -20 -20 -20 -16 0 -20 -7 -20 -36 0 -22 -7 -43 -17
-53 -10 -9 -19 -25 -21 -36 -6 -37 -11 -45 -28 -38 -13 5 -15 3 -10 -8 4 -8 1
-6 -7 4 -15 18 -32 24 -22 7 13 -21 -8 -8 -103 64 -180 136 -345 236 -687 416
-66 35 -164 90 -218 122 -55 32 -102 58 -107 58 -4 0 -97 -93 -206 -207 -109
-115 -204 -212 -212 -217 -22 -13 -462 431 -441 446 12 8 11 9 -2 5 -9 -3 -22
-1 -30 3 -10 7 4 26 59 80 40 39 77 68 82 65 6 -4 7 1 3 11 -5 14 -3 16 11 11
9 -4 15 -3 12 2 -7 11 44 62 55 55 5 -3 8 -1 7 4 -4 13 8 25 355 370 l304 304
94 18 c103 20 370 88 378 96 11 11 39 -5 164 -90z m1391 -529 c-9 -27 -11 -44
-4 -56 9 -14 10 -13 8 4 -3 42 2 54 18 48 9 -3 14 -13 11 -24 -3 -11 -2 -17 2
-15 10 7 54 -142 47 -160 -3 -8 -2 -13 3 -10 11 7 24 -60 15 -77 -4 -7 -3 -8
2 -4 16 15 34 -121 40 -298 10 -266 -30 -473 -126 -664 -22 -45 -38 -86 -35
-90 9 -16 187 -122 394 -236 253 -138 351 -195 399 -231 3 -2 -166 -314 -177
-326 -3 -4 -36 10 -73 32 -37 21 -114 63 -170 91 -267 136 -476 258 -593 344
l-71 53 -54 -29 c-81 -42 -188 -81 -200 -74 -5 3 -10 2 -10 -3 0 -5 -11 -12
-25 -14 -13 -3 -22 -1 -19 3 3 5 12 9 20 9 13 0 18 17 15 50 -1 9 1 11 6 4 6
-7 20 -6 48 2 39 12 39 13 10 15 -23 1 -25 3 -8 6 19 4 22 13 28 86 5 45 10
77 12 70 3 -10 9 -10 24 0 16 10 19 24 19 89 l0 78 50 0 50 0 -2 78 -2 77 -6
-75 -6 -75 -2 83 c-2 67 1 82 13 82 8 0 15 5 15 11 0 7 8 17 17 24 14 11 17
27 14 104 l-3 91 40 0 c40 0 40 0 45 43 3 23 8 56 12 72 5 23 4 26 -4 15 -9
-12 -11 -11 -11 8 0 13 -6 22 -15 22 -8 0 -15 6 -15 14 0 15 42 35 82 38 25 2
33 16 15 29 -4 3 -10 56 -14 117 l-6 112 31 0 c17 0 32 -6 35 -12 11 -32 22
12 23 90 1 168 4 213 14 207 6 -3 10 -2 10 4 0 5 -4 13 -10 16 -17 10 -11 25
10 25 22 0 27 15 8 24 -10 5 -10 7 0 12 6 3 12 17 12 30 0 14 -4 22 -10 19 -6
-4 -10 6 -10 22 0 22 2 25 10 13 7 -12 10 -8 10 15 0 23 3 27 10 15 7 -11 10
-11 10 -2 0 7 5 10 12 6 8 -5 9 2 5 27 -6 33 -6 33 7 10 12 -21 12 -31 0 -64z
m-2366 -1332 c92 -20 266 -42 495 -61 228 -20 670 -23 739 -6 26 7 54 9 62 6
18 -7 22 -34 5 -34 -5 0 -15 -13 -20 -30 -6 -16 -17 -30 -25 -30 -10 0 -14
-12 -14 -40 0 -33 -3 -40 -20 -40 -16 0 -20 -7 -21 -32 -1 -18 -1 -36 0 -40 0
-5 -17 -8 -38 -8 -39 0 -39 0 -42 -43 -4 -38 -2 -43 14 -39 9 2 17 -1 17 -7 0
-6 -8 -11 -17 -11 -14 0 -15 -2 -5 -9 44 -27 -122 -18 -358 20 -145 23 -411
88 -490 119 -98 39 -191 93 -247 143 -29 27 -56 47 -59 44 -3 -3 -14 -40 -25
-81 -18 -70 -18 -79 -4 -99 21 -31 19 -119 -4 -165 -40 -77 -107 -113 -219
-117 l-73 -3 -72 -123 c-162 -277 -301 -452 -440 -555 -263 -195 -493 -18
-316 244 92 135 200 233 482 437 153 111 177 132 172 150 -4 11 -9 48 -12 81
-10 117 47 173 183 182 l72 4 78 79 c88 88 90 89 202 64z"/>
</g>
</svg>
